<svg xmlns="http://www.w3.org/2000/svg" viewBox="0 0 412 640"><title>cardback-red</title><rect width="412" height="640" rx="32.013" ry="32.013" style="fill:#a23b2a"/><rect x="10" y="10" width="392" height="620" style="fill:#dab1ab"/><path d="M402,10V630H10V10m9.575,7.5c-3.8,1.748-5.03,6.226-4.769,10.074q.092,295.214.031,590.443A9.351,9.351,0,0,0,25.08,628.179q176.369.023,352.769.015c4.615-.046,9.262.261,13.877-.261,4.462-.874,7.3-5.52,7.084-9.906q0-296.019-.031-592.053a9.359,9.359,0,0,0-10.289-9.584q-178.554-.138-357.124-.061c-3.941.138-8.112-.521-11.792,1.165m3.189,3.312c121.444-.567,242.918-.061,364.362-.261a5.971,5.971,0,0,1,7.376,6.962q.046,294.432.015,588.864c.705,3.649-1.457,8.05-5.7,7.422q-181.8.161-363.61.031c-4.385.782-7.023-3.465-6.41-7.391q-.069-293.6-.031-587.254c-.031-3.067.261-7.636,4-8.372m3.189,17.511c.521,29.165-1.043,58.345.046,87.525.215,7.636-.322,15.288-.368,22.924q0,131.15-.015,262.3c.2,35.191-.368,70.413.4,105.6-1.119,30.208.46,60.43-.061,90.653-.215,3.435,1.1,8.756,5.443,8.6,19.919.552,39.868-.322,59.8.245,37.8-.675,75.611.368,113.439-.015,25.04-.307,50.111.475,75.136-.307,34.026.184,68.051.322,102.092.123.981-1.073,1.993-2.147,3.021-3.22.567-18.14-.092-36.28.291-54.4a125.791,125.791,0,0,0,0-26.206q.092-187.019.015-374.114c.107-18.968-.552-37.951.644-56.873-1.671-22.74.061-45.541-1.1-68.3-1.027-5.244-7.529-4.707-11.577-4.815-18.355.414-36.709-.153-55.064.061-23.522.613-47.029-.261-70.535-.077-39.868.184-79.72-.307-119.558.276-18.968.184-37.936-.6-56.888-.123-12.819.445-25.638-.751-38.427.123-4.784.184-7.284,5.75-6.732,10.013m5.152-8.142c9.4-2.315,19.489-1.533,29.012-.613,33.642,25.5,66.671,51.89,100.176,77.62,2.085,1.809,4.953,3.343,5.551,6.3,1.978,7.038,3.7,14.138,5.627,21.191,8.1-1.533,16.116-3.389,24.243-4.815-1.579-8.188-4.033-16.162-6.272-24.166-6.241,1.027-12.39,2.469-18.585,3.6-10.458-8.326-21.237-16.254-31.511-24.825,4.155-.475,8.74-1.1,11.623-4.523,5.413-5.367,4.155-15.3-2.223-19.367-3.435-2.561-7.882-2.009-11.868-1.963,7.636-8.081,7.713-20.363,1.993-29.533,42.306-.552,84.643.015,126.964-.245,4.048-.046,8.112.092,12.19.337-2.285,4.815-4.876,9.829-4.171,15.349.031,5.321,3.067,9.875,6.057,14.046-7.406-1.472-16.147,2.315-17.281,10.412-1.825,8.71,6.44,15.9,14.766,15.487-10.09,8.725-21.007,16.453-31.4,24.81-6.226-1.135-12.39-2.5-18.6-3.573-2.254,7.989-4.723,15.962-6.256,24.151,8.112,1.457,16.147,3.266,24.243,4.83,1.932-7.038,3.619-14.138,5.627-21.145.383-2.239,2.147-3.741,3.864-5.045,33.7-26.021,67.177-52.35,100.881-78.371,7.33-2.315,15.64-1.319,23.277-.583,1.595.138,6.333,1.825,3.465,3.68-57.854,45.848-115.939,91.435-173.64,137.483-13.678-9.706-26.451-20.685-39.745-30.928Q104.479,88.7,39.878,37.6a73.813,73.813,0,0,1-8.771-7.422m38.35-1.027c11.562.077,23.384-1.411,34.808.721a22.94,22.94,0,0,0,1.9,28.521c-8.587-5.443-16.131-12.313-24.273-18.37-4.217-3.542-9.292-6.226-12.436-10.872m243.087.675c11.485-1.794,23.307-.935,34.9-.521-4.125,5.106-9.89,8.418-14.858,12.574-7.345,5.443-14.168,11.592-21.82,16.591,7.008-7.9,7.974-19.98,1.779-28.644M107.622,42.9c-.138-5.612,3.925-9.86,7.974-13.141,4.048-.015,8.188-.552,12.19.368,4.232,2.852,7.912,7.406,7.713,12.773a13.877,13.877,0,0,1-12.006,13.938c-8.1,1.349-16.208-5.7-15.87-13.938m11.255-7.192c-5.735,1.809-6.977,10.381-1.917,13.693,4.8,4.017,12.972-.245,12.436-6.486.276-5.29-5.735-9.108-10.519-7.207m162.569,5.627c.261-4.922,4.171-8.28,7.437-11.47,4.063-.153,8.2-.6,12.267.107,4.937,2.975,8.74,8.556,7.989,14.521A14.058,14.058,0,0,1,294.925,57.01c-7.974.046-14.705-7.8-13.478-15.671m10.841-5.551c-5.873,1.978-6.563,11.194-1.027,14,4.339,2.975,10.872-.046,11.684-5.167,1.579-5.827-5.244-11.393-10.657-8.832m-264.876.077C41.795,45.847,55.2,57.24,69.181,67.805q63.482,49.29,126.933,98.627c2.806,2.193,5.858,4.155,8.265,6.839-4.309,5.2-10.473,8.71-15.579,13.172-.537-.046-1.641-.138-2.193-.184Q107.37,121.236,28.025,56.32c-1.84-6.456-.353-13.693-.613-20.455M212.061,173.3c57.256-44.606,114.452-89.319,172-133.542.429,6.732.353,13.494.123,20.241-51.261,42.183-102.736,84.106-153.967,126.32-.552.015-1.656.031-2.208.046-5.4-4.278-10.964-8.342-15.947-13.064M109.555,61.518c7.161,3.419,15.548,4.14,22.755.4-3.327,4.309-4.017,9.691-3.005,14.95-6.64-5.06-13.248-10.151-19.75-15.349m27.831.245c7.5-4.109,17.128,4.232,14.23,12.236-1.871,7.452-12.482,9.737-17.4,4-4.876-4.661-2.944-13.632,3.174-16.239m133.419-.046c6.808-3.573,15.778,2.959,14.521,10.5-.429,7.866-11.24,11.96-16.928,6.609-5.658-4.493-4.278-14.352,2.407-17.112M27.519,63.864c14.092,8.3,22.035,25.439,19.98,41.57-1.733,12.482-8.756,24.979-20.179,30.9-.107-4.048-.092-8.081-.015-12.129a30.232,30.232,0,0,0,9.354-14.536c1.61-10.458,1.426-22.479-6.425-30.591C25.556,75.3,27.5,69,27.519,63.865m356.572,68.619c-19.919-15.318-19.9-49.191-.015-64.54.077,5.858,1.457,12.267-1.687,17.6a32.042,32.042,0,0,0,.123,29.533c3.143,5.244,1.564,11.623,1.579,17.4m-46.829-28.8c13.187-10.55,25.945-21.636,39.316-31.94-3.941,7.36-8.357,14.782-8.94,23.338-1.963,15.058,4.692,30.606,16.515,40.006.491,122.624-.046,245.264.261,367.889-.245,3.005.629,6.824-2.377,8.771-12.16,10.427-17.343,27.861-13.448,43.333,1.242,5.95,4.508,11.148,7.1,16.576-5.735-2.837-10.074-7.713-15.165-11.485-24.963-20.731-50.479-40.819-75.074-61.949,8.97.782,18.661-5.551,18.723-15.15,1.165-10.918-11.378-19.965-21.375-15.334-8.464,3.128-11.838,13.509-8.418,21.544-14.2-11.1-28.015-22.694-41.892-34.179,9.584-7.9,19.382-15.564,29.2-23.185h1.027c8.94,12.8,23.967,21.7,39.914,20.578,22.541-.4,42.551-20.486,42.72-43.057.981-17.419-9.706-34.532-25.408-41.892-16.1-7.713-36.908-4.83-49.743,7.774-11.025,9.921-15.763,25.362-13.785,39.883-4.493-4.585-12.083-6.18-17.419-2.07-6.931,4.554-7.176,15.763-.414,20.578,3.327,2.9,7.9,2.683,12.022,2.285-6.916,5.781-14.6,10.642-21.007,17.005-6.011-3.895-11.3-8.74-16.775-13.31-1.717-1.165-3.971-3.6-6.1-1.871-6.793,4.677-12.42,10.872-19.459,15.226-6.333-6.379-13.984-11.24-20.9-16.944,5.474.767,11.914-.368,14.858-5.582,4.539-6.486,1.211-16.376-6.21-18.953-5.167-2.177-10.872-.031-14.6,3.757,1.1-9.844-.031-20.179-5.045-28.889-7.943-14.6-24.473-24.365-41.233-23.016-23.139.107-43.3,21.452-42.643,44.483-.567,21.973,17.68,42.306,39.531,44.33,16.944,2.285,34.164-6.517,43.226-20.823,10.3,7.575,20.256,15.656,30.162,23.752-14,11.362-27.708,23.123-42,34.118,2.745-6.563,1.441-14.812-4.416-19.229a15.582,15.582,0,0,0-21.314,1.687c-6.241,6.425-5.06,18.155,2.407,23.154,3.45,2.837,8.081,2.867,12.313,3.312-27.371,23.491-55.8,45.756-83.462,68.925a35.385,35.385,0,0,1-6.885,4.677c8.587-13.555,11.654-31.235,4.324-46.017-3.726-9.078-11.73-15-18.845-21.207-.506-119.6-.015-239.253-.245-358.888-.031-2.9-.245-6.64,2.883-8.1,14.95-9.446,23.108-28.276,19.612-45.664-.981-7.084-4.953-13.08-7.912-19.413,13.954,10.151,26.8,21.759,40.328,32.492,16.867,13.984,34.041,27.616,50.755,41.815-4.907.184-10.35.291-14.03,4.033-7.36,5.965-6.931,18.646.828,24.089,6.747,5.535,17.833,3.649,22.479-3.726,3.343-4.447,2.683-10.243,1.794-15.364,13.908,11.163,27.785,22.387,41.371,33.964-9.982,7.912-19.857,15.962-30.07,23.568-9.185-14.536-26.8-23.277-43.977-20.808-21.851,2.515-39.7,23.031-38.841,45.066-.276,23.323,20.762,44.407,44.131,43.809,20.425.935,39.715-14.552,44.054-34.363a51.438,51.438,0,0,0,.659-17.067c4.569,3.343,10.795,5.643,16.116,2.515,7.5-3.634,9.17-14.812,3.005-20.455-3.082-3.435-7.928-3.511-12.16-3.941q9.959-8.165,20.317-15.824c6.486,5.03,12.574,10.58,19.2,15.441,1.579,1.625,3.6-.276,4.968-1.211,5.842-4.723,11.592-9.584,17.465-14.291q10.281,7.8,20.379,15.794c-4.692.414-10.059.8-13.1,4.937-5.474,6.18-2.9,17.067,4.83,20.011,5.167,2.5,10.78.092,15.119-2.929a45.217,45.217,0,0,0,13.264,39.086c15.686,15.732,43.364,16.576,59.925,1.717,15.533-12.666,20.271-36.341,10.918-54.036-7.268-14.582-22.97-24.641-39.331-24.6A44.269,44.269,0,0,0,264.764,210.5c-1.012,1.211-2.254,3.68-3.956,1.717-9.522-7.391-18.937-14.92-28.368-22.418q20.471-17.2,41.386-33.9c-1.058,5.459-1.441,11.715,2.469,16.223,5.321,7.36,17.3,8.142,23.43,1.4,6.624-6.195,5.811-18.186-1.656-23.4-3.527-3.174-8.51-2.944-12.911-3.327,17.005-14.8,34.823-28.628,52.1-43.1M186.9,280.884c6.118,6.885,12.988,13.034,19.321,19.719-5.934,6.839-13.586,12.39-18.692,19.781,4.615,7.544,13.064,12.558,18.4,19.811-6.011,6.9-13.294,12.62-19.014,19.781,6.624,6.057,12.512,12.88,19.244,18.8,7.376-5.336,13.11-12.85,19.9-18.968-6.149-6.839-12.972-13.034-19.29-19.7,6.072-6.747,13.248-12.5,19.014-19.52-5.582-7.268-12.957-13.064-19-19.98,6.272-6.7,13.064-12.9,19.29-19.643-6.732-6.195-12.5-13.57-19.827-19.029-6.87,5.858-12.834,12.712-19.351,18.953m-39.04,39.684c6.042,6.916,12.9,13.11,19.367,19.612,6.118-6.762,13.6-12.528,19.091-19.689-5.52-7.115-12.942-12.926-19.075-19.658-6.5,6.532-13.417,12.727-19.382,19.735m78.294,0c6.456,6.594,12.88,13.248,19.673,19.52,6.517-6.486,13.064-12.942,19.489-19.52-6.333-6.716-12.988-13.141-19.52-19.658-6.747,6.348-13.279,12.926-19.643,19.658M26.66,78c10.3,7.5,11.746,22.633,7.836,33.964-1.595,3.757-3.481,8.326-7.912,9.338C26.231,106.876,26,92.416,26.66,78m142.052,34.961c6.195-1.595,12.466-2.913,18.769-3.987,1.625,6.1,3.266,12.206,4.784,18.355-6.195,1.411-12.42,2.714-18.677,3.757-1.61-6.057-3.3-12.068-4.876-18.125m60.707-3.956c6.256,1.135,12.528,2.331,18.692,3.895-1.518,6.1-3.22,12.144-4.907,18.2-6.256-1.089-12.466-2.315-18.631-3.726q2.254-9.223,4.845-18.37m-21.452,67.3.966.015c5.612,4.247,10.9,8.94,16.806,12.834l-.491.644c-4.983,5.06-10.764,9.369-16.361,13.724-6.578-3.051-11.715-9.415-17.879-13.586l.629-.644c5.183-4.646,10.948-8.587,16.331-12.988M93.608,200.4c19.259-12.62,47.872-5.75,59.265,14.291q-3.68,3.105-7.59,5.919c-5.842-9.062-15.5-16.3-26.619-16.576-13.448-1.4-27.233,6.762-32.707,19.06-3.22,6.425-2.423,13.862-2.1,20.793,2.085,12.221,12.313,22.357,24.227,25.285,6.854,1.227,14.245,1.211,20.731-1.61a33.27,33.27,0,0,0,20.44-28.321c.4-5.259-.828-10.442-2.269-15.456q3.657-2.9,7.33-5.811c11.746,20.394,1.058,49.129-20.44,58.084-19.6,9.369-45.311.9-55.355-18.385C67.433,238.486,74.41,211.56,93.608,200.4m171.141,13.08c9.354-14.966,28.69-22.571,45.8-18.339,19.213,4.14,33.8,22.909,33.136,42.551,0,20.3-16.239,38.948-36.356,41.662-19.152,3.312-39.469-8.127-46.461-26.251-4.339-11.209-4.477-24.58,1.579-35.16q3.749,2.944,7.483,5.965c-2.545,7.391-3.45,15.594-.859,23.108,4.171,13.54,17.864,23.614,32.124,22.97,12.926.307,25.163-8.311,30.1-20.1,2.637-5.719,2.039-12.221,1.917-18.339-1.763-16.515-18.585-29.272-34.915-27.555-11.117.337-20.869,7.452-26.711,16.591-2.269-2.162-7.176-3.481-6.839-7.1M84.53,236.217c-.659-17.818,16.76-32.83,34.179-30.959,10.672.429,19.689,7.391,25.607,15.855-10.749,9.538-22.495,17.91-33.612,27.033-1.763,1.058-2.162,3.082-2.714,4.907,13.616-7.928,24.81-19.551,38.074-28.092,2.223,7.836,3.021,16.484-.445,24.089a32.028,32.028,0,0,1-31.48,19.643c-16.468-.475-30.852-15.916-29.61-32.477M272.569,221.1c5.612-8.035,13.938-14.69,23.982-15.686,10.366-1.733,20.977,2.852,28.061,10.335,8.633,9.538,10.182,24.442,4.431,35.82-7.115,14.567-26.144,21.437-40.911,14.6-15.625-6.241-23.445-25.561-17.266-41.11,13.218,8.495,24.427,19.965,37.905,28.045-.4-4.876-5.413-6.778-8.6-9.691-9.108-7.544-18.891-14.276-27.6-22.311m-107.291-8.986c6.333-3.879,15.41,1.288,15.3,8.725.475,7.774-9.185,13.432-15.64,8.97-6.624-3.588-6.348-14.322.337-17.7m76.424-.092c6.962-4.171,16.53,2.515,15,10.458-.644,6.977-9.277,11.24-15.211,7.514-6.9-3.557-6.762-14.567.215-17.971M80.636,383.759c12.558-19.7,42.03-24.841,60.615-10.734,16.806,11.546,22.433,35.3,13.831,53.576a30.889,30.889,0,0,1-8.219-5.888c3.036-8.1,3.465-17.373-.015-25.408-5.735-14.935-23.507-24-38.948-19.566C93.071,379.327,82,394.232,82.92,409.458c.567,14.168,11.24,27.187,25.009,30.591,14.153,3.879,30.054-3.174,37.246-15.84,2.561,1.825,5.091,3.7,7.636,5.6-11.5,21.835-43.3,27.57-62.424,12.436-18.079-12.9-22.709-40.435-9.752-58.483M274.654,373.73c14.092-11.1,35.268-11.638,50-1.5a42.8,42.8,0,0,1,18.861,38.641c-.9,18.385-15.211,35.13-33.259,38.81-17.481,4.247-37.721-3.8-46.185-19.934,2.515-1.886,5.06-3.726,7.667-5.5a33.821,33.821,0,0,0,27.8,16.806c12.942.659,25.745-7.268,31.128-19.029a31.9,31.9,0,0,0,.445-27.309,33.132,33.132,0,0,0-59.081-3.573c-5.321,8.863-5.735,20.026-2.039,29.579a40.948,40.948,0,0,1-8.158,6c-8.51-17.925-3.343-41.187,12.819-52.978M84.331,407.894c-.567-16.315,13.662-31.25,29.932-31.741,14.9-1.257,29.824,9.63,32.814,24.365,1.763,6.318.675,12.926-.9,19.167-13.248-8.158-24.273-19.52-37.491-27.708-.659,2.622,1.426,4.37,3.235,5.735,10.81,8.418,21.605,16.883,32.216,25.561-6.026,10.994-18.891,17.772-31.373,16.208-15.686-1.227-28.95-15.824-28.429-31.588m191.9-20.471c9.737-12.206,28.966-14.981,41.846-6.21a31.7,31.7,0,0,1,14.429,28.2c-.337,15.226-13.294,28.92-28.475,30.085-12.482,1.533-25.239-5.275-31.327-16.177,11.393-9.522,23.369-18.37,34.792-27.846.153-.889.475-2.668.629-3.557-13.126,8.342-24.243,19.566-37.445,27.754-3.435-10.81-2.009-23.461,5.551-32.247M165.309,414.748c6.241-3.818,15.058,1.181,15.257,8.418.659,7.529-8.158,13.371-14.828,9.768-7.33-3.143-7.529-14.644-.429-18.186m76.623-.169c7.406-4.263,17.128,3.634,14.567,11.73-1.5,7.376-11.761,10.228-16.959,4.891-5.2-4.493-3.8-13.754,2.392-16.622m-51.445,40.175c5.735-4.585,11.132-9.6,17.1-13.892l1.564-.107c5.98,4.37,11.5,9.338,17.174,14.107-5.827,4.631-11.807,9.047-17.5,13.846-6.471-4.171-12.282-9.231-18.339-13.954M27.412,588.818C81.126,545.438,134.2,501.262,187.788,457.729c5.735,4.6,11.9,8.74,17.082,14C146.663,516.565,88.839,561.922,30.709,606.866c-.859.445-2.576,1.365-3.435,1.809-.061-6.624-.092-13.248.138-19.857M211.939,471.652c5.275-5.137,11.347-9.369,17.143-13.892,51.8,42.045,103.089,84.735,154.979,126.673a183.152,183.152,0,0,1,0,20.517c-57.716-43.962-114.574-89.089-172.122-133.3m-88.062,1.441c6.609-3.588,15.533,2.653,14.414,10.09-.307,6.977-8.97,11.608-14.95,7.928-7.115-3.5-6.778-14.95.537-18.017m1.349,4.309c-3.573,1.963-3.588,7.82.031,9.752,3.757,2.622,9.553-1.15,8.633-5.674-.368-3.956-5.351-6.425-8.664-4.079m159.533-4.493c6.578-3.113,14.812,2.867,13.954,10.059-.107,7.974-11.056,12.558-16.729,6.87-5.766-4.447-4-14.475,2.775-16.928M286,477.218c-3.7,1.549-4.125,7.192-.935,9.492,3.6,3.389,10.166-.337,9.2-5.152-.138-3.864-5.03-6.379-8.265-4.339m-78.064-3.159.981-.015c51.614,41.493,103.856,82.22,155.73,123.437,6.287,5.4,13.494,9.768,19.152,15.886-8.587,3.573-18.37,1.533-27.432,1.671-29-22.081-57.563-44.775-86.421-67.055-5.9-4.845-12.282-9.108-17.941-14.23-3.343-7.422-3.4-16.515-7.422-23.369-7.928,1.3-15.717,3.251-23.614,4.692,1.825,8.081,4.293,16.008,6.333,24.043,6.226-.859,12.3-2.745,18.585-3.343,11.056,7.882,21.513,16.607,32.324,24.856-3.879.322-8.234.261-11.209,3.159a12.923,12.923,0,0,0-.859,18.83c3.511,3.91,9.139,3.941,13.984,3.481-3.3,4.385-6.609,9.262-6.3,15.012-.506,5.045,1.978,9.553,3.772,14.092-46.17.061-92.34.307-138.495-.077,5.766-9.062,5.122-21.283-2.438-29.119,4.539.567,9.737.613,13.31-2.745,5.888-4.707,5.827-14.659-.031-19.367-3.021-2.9-7.36-2.975-11.255-3.281,10.718-8.2,21.145-16.852,32.094-24.779,6.348.337,12.451,2.5,18.769,3.251,2.055-8.035,4.493-15.947,6.348-24.028-8.2-1.487-16.284-3.588-24.549-4.631-2.1,7.744-3.772,15.686-6.471,23.246-18.876,15.472-38.534,30.039-57.67,45.2-15.671,11.96-30.959,24.442-46.768,36.157a277.269,277.269,0,0,1-29.87-.169C89.36,567.535,149.131,521.4,207.937,474.06M27.519,508.392c16.683,9.6,24.365,31.5,18.109,49.574-3.082,9.43-9.384,18.14-18.217,22.893-.169-4-.215-8-.169-12.006a33.634,33.634,0,0,0,9.522-15.211c1.365-10.2,1.38-21.82-6.21-29.778-4.983-3.7-3.113-10.2-3.036-15.472m146.269,5.321c6.195,1,12.3,2.469,18.477,3.649-1.349,6.164-3.251,12.19-4.723,18.324-6.272-.859-12.436-2.315-18.646-3.5a159.833,159.833,0,0,1,4.891-18.477m50.816,3.649c6.149-1.288,12.3-2.637,18.523-3.634,1.779,6.087,3.665,12.16,4.83,18.4-6.226,1.211-12.405,2.714-18.692,3.527-1.472-6.118-3.3-12.16-4.661-18.293M384.046,576.9c-19.75-15.3-19.857-49.053-.077-64.4.138,5.443,1.61,11.439-1.1,16.515a31.831,31.831,0,0,0-.245,30.591c2.9,5.275,1.5,11.562,1.426,17.3M26.584,522.76c9.952,6.042,11.209,20.179,8.848,30.637-1.871,4.661-3.435,10.9-8.786,12.574-.613-14.383-.445-28.812-.061-43.211m110.771,41.785c6.226-3.327,14.751,1.763,14.659,8.848.629,7.452-8.342,13.248-14.874,9.538-7.544-3.3-7.452-15.288.215-18.385m133.358-.015c6.839-3.649,15.916,2.821,14.613,10.473-.675,7.268-9.89,11.638-15.87,7.36-6.64-3.925-5.9-14.9,1.257-17.833M69.3,614.931c19.581-16.177,40.205-31.082,59.848-47.213-.629,5.2-.429,10.7,3.051,14.92-6.655-2.683-14.46-3.45-20.946.153-5.75,3.757-10.58,9.737-11.056,16.821-.828,5.52,1.61,10.718,3.925,15.564-11.608.138-23.231.353-34.823-.245m218.353-46.845c20,15.548,40.282,30.79,59.878,46.86-11.577.629-23.185.291-34.762.169,1.763-4.017,3.91-8.066,3.987-12.574.567-10.6-8.1-20.961-18.692-22.065-4.6-.8-9.108.767-13.417,2.147,3.435-4.109,3.726-9.446,3.005-14.536M118.05,588.2c10.718-3.251,21.345,9.093,16.331,19.229-3.864,9.737-18.738,11.01-24.289,2.223-5.535-7.514-1.089-19.305,7.958-21.452m1.273,5.95c-5.8,1.549-7.636,10.028-2.729,13.647,4.324,3.956,12.374.935,12.742-4.983,1.027-5.428-4.769-10.473-10.013-8.664m173.211-6.087c10.243-2.637,20.026,9.078,15.732,18.707-3.327,10.258-19.106,11.976-24.549,2.729-5.689-7.713-.6-19.9,8.817-21.437m.123,6.18c-5.582,1.733-7.1,9.875-2.53,13.494,3.971,3.588,11.117,1.687,12.589-3.527,2.3-5.827-4.263-12.252-10.059-9.967" style="fill:#a23b2a"/><path d="M284.482,61.9c7.222,3.772,15.579,2.959,22.817-.291-6.609,5.091-13.156,10.228-19.765,15.3,1.027-5.29.337-10.718-3.051-15.012M123.661,153.521c6.87-3.879,16.131,2.76,14.582,10.519-.705,7.575-10.948,11.424-16.515,6.272-5.535-4.247-4.431-13.908,1.932-16.791m3.2,3.481a5.717,5.717,0,0,0-3.511,8.541c2.055,3.818,8.342,3.573,10.028-.506,2.285-4.079-2.07-9.415-6.517-8.035m156.451-3.067c6.226-4.247,15.671.92,15.426,8.464.506,7.652-9.016,13.018-15.349,8.832-6.394-3.481-6.456-13.754-.077-17.3m3.128,3.22c-3.266,1.426-4.707,5.858-2.469,8.756,2.407,3.833,9.231,2.867,10.136-1.779,1.518-4.462-3.481-8.679-7.667-6.977" style="fill:#a23b2b"/><path d="M382.925,86.191c.337.675,1.027,2.009,1.365,2.683a163.687,163.687,0,0,1,.061,23.108c-.353.491-1.073,1.472-1.441,1.963a37.724,37.724,0,0,1,.015-27.754" style="fill:#a43e2e"/><path d="M207.967,176.307c-1.978-.782-2.576-4.278-.153-4.907,3.067-.8,3.7,3.987,1.119,4.922l-.966-.015" style="fill:#ecd7d4"/><path d="M186.607,186.259l2.193.184c.721.705,2.131,2.147,2.837,2.852l-.629.644c-1.181,1.993-4.079,2.913-5.858,1.15-1.288-1.855,0-3.619,1.457-4.83" style="fill:#e0beb9"/><path d="M228.008,186.366c.552-.015,1.656-.031,2.208-.046,1.687,1.457,3.358,4.508.675,5.9a6.184,6.184,0,0,1-5.643-2.423l.491-.644c.567-.705,1.7-2.085,2.269-2.791" style="fill:#e0beb8"/><path d="M157.564,214.995c2.269-.046,1.779,3.864-.184,4-2.208-.215-1.794-3.726.184-4" style="fill:#b7675a"/><path d="M258.415,215.24c1.9-1.119,3.465,2.193,1.978,3.435-1.963,1.4-3.511-2.223-1.978-3.435" style="fill:#b76759"/><path d="M380.18,544.288c.46-4.508.169-10.289,4.017-13.34a199.713,199.713,0,0,1,.123,27.095c-4.155-3.051-3.787-9.108-4.14-13.754" style="fill:#a43f2f"/></svg>